<svg width="17" height="17" viewBox="0 0 17 17" fill="none" xmlns="http://www.w3.org/2000/svg">
<path d="M8.5 0C6.81886 0 5.17547 0.477628 3.77766 1.37248C2.37984 2.26734 1.29037 3.53924 0.647028 5.02733C0.00368291 6.51542 -0.164645 8.15287 0.163329 9.73263C0.491303 11.3124 1.30085 12.7635 2.4896 13.9024C3.67834 15.0413 5.1929 15.817 6.84174 16.1312C8.49057 16.4454 10.1996 16.2842 11.7528 15.6678C13.306 15.0514 14.6335 14.0076 15.5675 12.6683C16.5015 11.3291 17 9.75454 17 8.14384C16.9976 5.98468 16.1012 3.91462 14.5077 2.38786C12.9142 0.861095 10.7536 0.0023353 8.5 0ZM8.5 14.9304C7.09905 14.9304 5.72956 14.5324 4.56471 13.7866C3.39987 13.0409 2.49198 11.981 1.95586 10.7409C1.41974 9.50086 1.27946 8.13631 1.55277 6.81985C1.82609 5.5034 2.50071 4.29415 3.49133 3.34504C4.48195 2.39592 5.74408 1.74957 7.11811 1.48771C8.49214 1.22585 9.91637 1.36024 11.2107 1.8739C12.505 2.38756 13.6112 3.25741 14.3896 4.37345C15.1679 5.48948 15.5833 6.80159 15.5833 8.14384C15.5813 9.94314 14.8343 11.6682 13.5064 12.9405C12.1785 14.2128 10.378 14.9284 8.5 14.9304ZM12.0417 8.14384C12.0417 8.32383 11.967 8.49645 11.8342 8.62372C11.7014 8.75099 11.5212 8.8225 11.3333 8.8225H9.20834V10.8585C9.20834 11.0384 9.13371 11.2111 9.00087 11.3383C8.86803 11.4656 8.68786 11.5371 8.5 11.5371C8.31214 11.5371 8.13197 11.4656 7.99914 11.3383C7.8663 11.2111 7.79167 11.0384 7.79167 10.8585V8.8225H5.66667C5.47881 8.8225 5.29864 8.75099 5.1658 8.62372C5.03296 8.49645 4.95834 8.32383 4.95834 8.14384C4.95834 7.96385 5.03296 7.79123 5.1658 7.66396C5.29864 7.53669 5.47881 7.46519 5.66667 7.46519H7.79167V5.42923C7.79167 5.24924 7.8663 5.07662 7.99914 4.94935C8.13197 4.82208 8.31214 4.75057 8.5 4.75057C8.68786 4.75057 8.86803 4.82208 9.00087 4.94935C9.13371 5.07662 9.20834 5.24924 9.20834 5.42923V7.46519H11.3333C11.5212 7.46519 11.7014 7.53669 11.8342 7.66396C11.967 7.79123 12.0417 7.96385 12.0417 8.14384Z" fill="#F9CC11"/>
</svg>
