<svg width="1007" height="17" viewBox="0 0 1007 17" fill="none" xmlns="http://www.w3.org/2000/svg">
<path d="M7.32924 16.3202C7.23604 16.3206 7.14364 16.3045 7.05736 16.2728C6.97107 16.241 6.89259 16.1942 6.82641 16.1351L1.04032 10.9207C0.710553 10.6243 0.448919 10.2721 0.270404 9.88445C0.0918892 9.49675 0 9.08113 0 8.66138C0 8.24164 0.0918892 7.82601 0.270404 7.43832C0.448919 7.05062 0.710553 6.69848 1.04032 6.40205L6.82641 1.1877C6.89244 1.12819 6.97084 1.08099 7.05711 1.04878C7.14339 1.01658 7.23586 1 7.32924 1C7.42263 1 7.5151 1.01658 7.60137 1.04878C7.68765 1.08099 7.76604 1.12819 7.83207 1.1877C7.89811 1.24721 7.95049 1.31785 7.98622 1.3956C8.02196 1.47335 8.04035 1.55669 8.04035 1.64084C8.04035 1.725 8.02196 1.80833 7.98622 1.88608C7.95049 1.96383 7.89811 2.03448 7.83207 2.09399L2.04598 7.30833C1.64811 7.66734 1.42462 8.15399 1.42462 8.66138C1.42462 9.16878 1.64811 9.65543 2.04598 10.0144L7.83207 15.2288C7.89845 15.2881 7.95114 15.3587 7.9871 15.4365C8.02305 15.5142 8.04156 15.5977 8.04156 15.6819C8.04156 15.7662 8.02305 15.8496 7.9871 15.9274C7.95114 16.0051 7.89845 16.0757 7.83207 16.1351C7.7659 16.1942 7.68742 16.241 7.60113 16.2728C7.51484 16.3045 7.42245 16.3206 7.32924 16.3202Z" fill="#F9CC11"/>
<path d="M998.712 3.5175e-05C998.805 -0.000450443 998.898 0.0156487 998.984 0.04741C999.07 0.0791713 999.149 0.125971 999.215 0.185123L1005 5.39947C1005.33 5.6959 1005.59 6.04805 1005.77 6.43574C1005.95 6.82344 1006.04 7.23906 1006.04 7.65881C1006.04 8.07855 1005.95 8.49418 1005.77 8.88187C1005.59 9.26957 1005.33 9.62171 1005 9.91815L999.215 15.1325C999.149 15.192 999.071 15.2392 998.984 15.2714C998.898 15.3036 998.806 15.3202 998.712 15.3202C998.619 15.3202 998.526 15.3036 998.44 15.2714C998.354 15.2392 998.275 15.192 998.209 15.1325C998.143 15.073 998.091 15.0023 998.055 14.9246C998.02 14.8468 998.001 14.7635 998.001 14.6793C998.001 14.5952 998.02 14.5119 998.055 14.4341C998.091 14.3564 998.143 14.2857 998.209 14.2262L1004 9.01186C1004.39 8.65285 1004.62 8.1662 1004.62 7.65881C1004.62 7.15141 1004.39 6.66476 1004 6.30576L998.209 1.09141C998.143 1.03208 998.09 0.961489 998.054 0.883715C998.018 0.805941 998 0.72252 998 0.638266C998 0.554012 998.018 0.470592 998.054 0.392817C998.09 0.315043 998.143 0.244455 998.209 0.185123C998.276 0.125971 998.354 0.0791712 998.44 0.0474099C998.527 0.0156486 998.619 -0.000450458 998.712 3.5175e-05Z" fill="#F9CC11"/>
<circle cx="503.5" cy="7.82019" r="6.5" fill="#F9CC11"/>
<circle cx="468" cy="8.32019" r="4.5" stroke="#F9CC11" stroke-opacity="0.6"/>
<circle cx="435" cy="8.32019" r="3.5" stroke="#F9CC11" stroke-opacity="0.3"/>
<circle cx="572" cy="8.32019" r="3.5" stroke="#F9CC11" stroke-opacity="0.3"/>
<circle cx="539" cy="8.32019" r="4.5" stroke="#F9CC11" stroke-opacity="0.6"/>
</svg>
